PathFileType	4	(X/Y/Z)	s08c0101.trc
DataRate	CameraRate	NumFrames	NumMarkers	Units	OrigDataRate	OrigDataStartFrame	OrigNumFrames
200	200	5	50	mm	200	1750	2000
Frame#	Time	racr			lacr			c7			jug			rlel			rdr			llel			ldr			s2			lic			ric			lasi			rasi			rpsi			lpsi			rgt			lgt			rth1			rth2			rth3			rth4			rlfc			rmfc			rsh1			rsh2			rsh3			rsh4			rlmal			rmmal			rcal			rtoe			rmt5			lth1			lth2			lth4			lth3			llfc			lmfc			llmal			lmmal			lcal			lmt5			lsh1			lsh2			lsh3			lsh4			ltoe			SBIKE			LBIKE			RBIKE			
		X1	Y1	Z1	X2	Y2	Z2	X3	Y3	Z3	X4	Y4	Z4	X5	Y5	Z5	X6	Y6	Z6	X7	Y7	Z7	X8	Y8	Z8	X9	Y9	Z9	X10	Y10	Z10	X11	Y11	Z11	X12	Y12	Z12	X13	Y13	Z13	X14	Y14	Z14	X15	Y15	Z15	X16	Y16	Z16	X17	Y17	Z17	X18	Y18	Z18	X19	Y19	Z19	X20	Y20	Z20	X21	Y21	Z21	X22	Y22	Z22	X23	Y23	Z23	X24	Y24	Z24	X25	Y25	Z25	X26	Y26	Z26	X27	Y27	Z27	X28	Y28	Z28	X29	Y29	Z29	X30	Y30	Z30	X31	Y31	Z31	X32	Y32	Z32	X33	Y33	Z33	X34	Y34	Z34	X35	Y35	Z35	X36	Y36	Z36	X37	Y37	Z37	X38	Y38	Z38	X39	Y39	Z39	X40	Y40	Z40	X41	Y41	Z41	X42	Y42	Z42	X43	Y43	Z43	X44	Y44	Z44	X45	Y45	Z45	X46	Y46	Z46	X47	Y47	Z47	X48	Y48	Z48	X49	Y49	Z49	X50	Y50	Z50	
1750	8.7500	569.345261	1367.290719	-78.931815	575.886560	1374.595281	-395.474239	543.115767	1435.264922	-238.436941	500.399927	1279.451200	-234.010178	594.848555	1112.816636	23.714800	789.868086	893.314022	-57.809090	591.567500	1101.821720	-492.174574	796.161446	901.591911	-426.171396	-20.719721	1218.603267	-232.484961	153.458957	1216.212921	-398.708539	144.620110	1214.020437	-72.313459	167.519793	1168.605599	-344.418540	165.477982	1162.737839	-107.742428	13.459346	1260.844491	-180.291507	13.836648	1263.290317	-275.194236	68.595057	1107.042438	-41.202563	88.243090	1102.545153	-416.646868	196.598185	989.800103	-37.582693	275.605138	949.286648	-40.184628	322.333453	875.660113	-47.331156	299.242755	975.522785	-52.469149	392.257690	788.147486	-63.754989	376.492396	782.900824	-180.983078	289.070515	708.831137	-34.349182	252.263276	628.025769	-53.174493	182.675468	578.429676	-58.687310	278.456956	612.742043	-79.373873	100.590403	495.855947	-65.719699	128.892205	498.156932	-151.479962	28.611268	524.361028	-114.692941	230.997713	311.826446	-112.752613	146.837854	349.202118	-41.330841	176.944299	994.904744	-422.140301	248.818648	945.924443	-416.824415	275.534810	969.038885	-406.501588	287.270222	865.613253	-414.926924	356.178209	758.562947	-391.238605	353.241726	729.865579	-288.547336	318.620378	339.495356	-407.915188	352.996317	371.157692	-335.152709	252.022502	308.413833	-371.640487	465.237878	270.591582	-424.562085	345.271693	629.255193	-420.081370	358.973587	545.628014	-405.927994	332.303797	461.692233	-409.958295	378.919779	546.866802	-371.514566	541.547089	308.785357	-353.716661	-139.855089	945.210785	-229.104468	17.989009	80.209492	-428.938518	17.741757	80.284170	-31.371449	
1751	8.7550	568.000643	1367.171029	-77.236858	575.795276	1374.623201	-394.268278	542.535742	1435.050976	-237.102806	499.993482	1279.235679	-232.648164	594.443105	1112.613030	24.912035	789.850463	893.426365	-57.685355	592.725831	1102.433235	-491.755387	796.504669	900.926183	-426.033682	-20.680960	1217.441905	-234.105161	141.142123	1210.522086	-385.086520	143.441650	1213.514639	-73.091134	168.085233	1166.350308	-345.646212	164.604069	1162.531687	-108.656947	12.948720	1259.998853	-181.919553	14.025180	1262.209123	-276.990820	68.271536	1107.542311	-41.309392	87.547918	1099.458733	-417.297605	197.959992	992.609122	-38.161238	278.071943	954.327494	-40.721640	326.654629	881.932293	-47.694127	300.892959	980.999504	-53.329518	398.544967	795.995852	-64.521908	382.753479	790.158587	-181.500233	295.110534	717.141511	-34.999466	257.444888	636.772150	-53.661597	187.411091	587.858099	-59.077652	283.489525	621.217011	-79.840012	104.508603	506.051130	-65.989748	132.844276	508.181681	-151.676107	32.347931	534.751654	-114.918806	234.143040	321.712990	-112.861371	150.123102	359.370051	-41.497555	174.126407	989.772385	-423.087955	244.904616	939.045898	-417.622634	272.104193	961.527457	-407.606457	281.226871	857.936893	-415.309007	348.403213	750.000275	-391.695950	346.385918	720.985227	-290.207061	315.936858	331.165826	-407.998440	350.730175	362.649561	-335.519808	249.948746	301.306652	-371.574432	462.585840	260.058034	-424.463417	338.398428	620.712913	-420.744138	353.417579	537.353157	-406.434887	328.168498	453.029870	-410.407933	373.313167	538.856074	-371.805550	539.477176	297.090645	-353.548237	-139.906796	945.182737	-229.201053	17.989120	80.177731	-428.931025	17.736376	80.262363	-31.369212	
1752	8.7600	566.823861	1367.022260	-75.345368	575.650494	1374.658236	-393.178085	541.932426	1434.848399	-235.727092	499.643292	1279.006355	-231.154257	594.098555	1112.467445	26.073562	789.844646	893.528852	-57.591223	593.991047	1103.062114	-491.386118	796.910769	900.322583	-426.029616	-20.527233	1216.405338	-235.827461	142.096590	1209.015333	-385.782100	142.267576	1213.010113	-73.849929	168.597409	1163.884975	-346.988943	163.807559	1162.349226	-109.464160	13.095851	1258.914500	-181.959688	14.165890	1260.887736	-278.516919	67.778716	1108.107279	-41.479417	86.862255	1096.391379	-417.959206	199.343168	995.839587	-38.407593	280.460976	959.609168	-41.247041	330.716065	888.415038	-48.277026	302.546182	986.765768	-53.997675	404.583406	803.919059	-65.287420	389.383080	797.546530	-182.570046	301.228344	725.324944	-35.635144	262.727123	645.370943	-54.215840	192.218553	597.158197	-59.517652	288.685283	629.520401	-80.326956	108.511878	515.994001	-66.292186	136.911878	518.011431	-151.967778	36.149599	544.785868	-115.041406	238.002539	331.770252	-113.043023	154.076633	369.982683	-41.119671	171.297601	984.806148	-424.057310	240.840341	932.481082	-418.552821	268.600191	954.296023	-408.589038	275.189835	850.621085	-415.948400	340.355290	741.927023	-392.501365	336.615130	712.926184	-291.658447	312.845431	323.130827	-407.841738	347.979259	354.504423	-335.592496	247.451136	294.635470	-371.339403	459.262007	249.736382	-424.321823	331.220488	612.423666	-421.369124	347.537159	529.347530	-407.001102	323.567339	444.578345	-410.758837	367.258715	530.935206	-371.988345	536.952012	285.435001	-353.515485	-139.963698	945.164643	-229.390209	17.973744	80.170849	-428.931879	17.735695	80.272108	-31.381391	
1753	8.7650	565.522707	1366.784842	-73.602911	575.507275	1374.740841	-392.012108	541.438377	1434.706114	-234.392288	499.390566	1278.801127	-229.867728	594.116329	1112.381067	27.514439	789.882195	893.624232	-57.480275	595.247185	1103.743756	-491.053630	797.275886	899.799165	-425.980942	-20.319225	1215.292471	-237.590363	143.142896	1207.507315	-386.402679	141.084654	1212.337830	-74.559050	169.072212	1161.298456	-348.368439	162.990535	1162.117077	-110.258714	11.803155	1258.207851	-183.659545	14.284579	1259.571087	-280.218389	67.181385	1108.932524	-41.713207	86.007798	1093.560668	-418.679480	200.650975	998.976543	-39.039784	282.697450	964.899011	-41.786913	334.668717	894.978817	-48.569848	304.027799	992.563693	-54.833830	410.362765	812.155156	-65.930839	393.509427	801.232660	-173.745828	307.231986	733.573653	-36.334080	268.145084	653.862101	-54.853074	197.026177	606.400723	-59.886210	293.564036	637.512025	-81.046396	112.572980	525.615462	-66.670887	141.128620	527.708543	-152.290308	40.035844	554.426442	-115.186479	242.447389	341.916196	-113.271351	158.623364	379.836998	-41.351645	168.445695	980.206496	-425.085497	236.707152	926.295839	-419.523413	265.014519	947.447617	-409.508172	269.082604	843.413796	-416.255693	332.056031	734.134250	-393.457176	327.066175	705.614404	-291.553439	309.240024	315.578321	-407.710466	344.976497	346.857415	-335.792447	244.453295	288.404101	-371.075195	455.389155	239.710531	-424.179169	323.756015	604.420219	-422.209855	341.379679	521.661331	-407.796713	318.567655	436.568430	-411.197175	361.059841	524.051976	-373.177049	533.805850	274.087893	-353.478966	-140.019087	945.155463	-229.492603	17.979142	80.143135	-428.947299	17.719399	80.283605	-31.376505	
1754	8.7700	564.414277	1366.532558	-71.711326	575.396284	1374.712059	-390.746295	540.973306	1434.606392	-233.061881	498.986028	1278.605195	-228.446286	593.826863	1112.051279	28.489916	789.874240	893.720420	-57.367610	596.592785	1104.378934	-490.756180	797.665091	899.259544	-426.041751	-20.197120	1214.025820	-239.244206	144.212329	1205.867717	-386.915700	139.881516	1211.714952	-75.231955	169.478719	1158.682646	-349.654104	162.249149	1161.910194	-111.106663	11.121766	1257.272654	-185.469342	14.469516	1258.282809	-281.794717	66.694732	1109.406386	-41.967457	85.224690	1090.813363	-419.289993	201.920769	1002.444499	-39.498460	284.870730	970.273767	-42.345201	338.461115	901.644736	-48.859542	305.443019	998.323441	-55.739821	416.072241	820.038504	-66.862908	399.433380	809.244400	-174.793779	313.241379	741.625561	-36.916045	273.441011	662.215906	-55.486224	201.997627	615.423599	-60.259812	298.693831	645.680589	-81.699496	116.742247	534.883500	-67.046221	145.990789	537.299174	-152.769520	43.709362	563.227021	-115.407920	247.539292	352.114069	-113.481010	163.566623	389.577193	-41.525374	165.551859	975.949617	-426.173727	232.649701	920.483843	-420.525422	261.370767	941.044080	-410.482261	263.100967	836.871288	-417.156025	323.668645	726.664978	-394.464464	317.968146	698.767594	-292.132681	305.205517	308.254129	-407.504819	341.129972	339.211524	-335.731111	240.997027	282.657916	-370.819253	450.957430	230.052594	-424.106985	315.929415	596.755677	-423.139414	334.769969	514.435627	-408.686962	313.161837	428.872887	-411.697515	354.399493	517.009681	-373.841551	530.066152	262.913773	-353.440999	-140.087533	945.123797	-229.617671	17.970365	80.135122	-428.947510	17.710964	80.250567	-31.390843	
